<svg width="300" height="300" viewBox="0 0 300 300" fill="none" xmlns="http://www.w3.org/2000/svg">
<rect width="300" height="300" fill="#0B2540"/>
<path d="M82.6118 140.409C82.4603 138.742 81.7861 137.447 80.5891 136.523C79.4073 135.583 77.7179 135.114 75.5209 135.114C74.0664 135.114 72.8542 135.303 71.8845 135.682C70.9148 136.061 70.1876 136.583 69.7027 137.25C69.2179 137.902 68.9679 138.652 68.9527 139.5C68.9224 140.197 69.0588 140.811 69.3618 141.341C69.68 141.871 70.1345 142.341 70.7254 142.75C71.3315 143.144 72.0588 143.492 72.9073 143.795C73.7558 144.098 74.7103 144.364 75.7709 144.591L79.7709 145.5C82.0739 146 84.1042 146.667 85.8618 147.5C87.6345 148.333 89.1194 149.326 90.3164 150.477C91.5285 151.629 92.4451 152.955 93.0664 154.455C93.6876 155.955 94.0058 157.636 94.0209 159.5C94.0058 162.439 93.2633 164.962 91.7936 167.068C90.3239 169.174 88.2103 170.788 85.4527 171.909C82.7103 173.03 79.3997 173.591 75.5209 173.591C71.627 173.591 68.233 173.008 65.3391 171.841C62.4451 170.674 60.1951 168.902 58.5891 166.523C56.983 164.144 56.1573 161.136 56.1118 157.5H66.8845C66.9754 159 67.377 160.25 68.0891 161.25C68.8012 162.25 69.7785 163.008 71.0209 163.523C72.2785 164.038 73.733 164.295 75.3845 164.295C76.8997 164.295 78.1876 164.091 79.2482 163.682C80.3239 163.273 81.1497 162.705 81.7254 161.977C82.3012 161.25 82.5967 160.417 82.6118 159.477C82.5967 158.598 82.3239 157.848 81.7936 157.227C81.2633 156.591 80.4451 156.045 79.3391 155.591C78.2482 155.121 76.8542 154.689 75.1573 154.295L70.2936 153.159C66.2633 152.235 63.0891 150.742 60.7709 148.682C58.4527 146.606 57.3012 143.803 57.3164 140.273C57.3012 137.394 58.0739 134.871 59.6345 132.705C61.1951 130.538 63.3542 128.848 66.1118 127.636C68.8694 126.424 72.0133 125.818 75.5436 125.818C79.1497 125.818 82.2785 126.432 84.93 127.659C87.5967 128.871 89.6648 130.576 91.1345 132.773C92.6042 134.97 93.3542 137.515 93.3845 140.409H82.6118ZM144.475 150.455C143.627 155.47 141.96 159.705 139.475 163.159C137.006 166.598 133.998 169.205 130.453 170.977C126.922 172.75 123.127 173.636 119.066 173.636C114.778 173.636 111.066 172.682 107.93 170.773C104.794 168.864 102.513 166.083 101.089 162.432C99.68 158.78 99.4073 154.348 100.271 149.136C101.089 144.121 102.733 139.879 105.203 136.409C107.688 132.939 110.71 130.311 114.271 128.523C117.847 126.72 121.68 125.818 125.771 125.818C130.028 125.818 133.718 126.78 136.839 128.705C139.975 130.629 142.248 133.424 143.657 137.091C145.066 140.758 145.339 145.212 144.475 150.455ZM133.225 149.136C133.695 146.212 133.695 143.75 133.225 141.75C132.771 139.75 131.877 138.242 130.544 137.227C129.21 136.197 127.475 135.682 125.339 135.682C122.975 135.682 120.839 136.265 118.93 137.432C117.036 138.583 115.453 140.265 114.18 142.477C112.907 144.674 112.021 147.333 111.521 150.455C111.006 153.409 110.991 155.871 111.475 157.841C111.975 159.811 112.907 161.295 114.271 162.295C115.635 163.28 117.369 163.773 119.475 163.773C121.824 163.773 123.938 163.205 125.816 162.068C127.695 160.932 129.263 159.273 130.521 157.091C131.794 154.909 132.695 152.258 133.225 149.136ZM150.203 173V126.455H161.453V163.864H180.816V173H150.203ZM191.958 126.455L202.367 160.545H202.754L213.163 126.455H225.754L210.049 173H195.072L179.367 126.455H191.958ZM210.216 173H198.125L213.83 126.455H228.807L244.511 173H232.42L221.489 138.182H221.125L210.216 173ZM208.602 154.682H233.875V163.227H208.602V154.682Z" fill="#A0E1E1"/>
</svg>
